# xmcd
#
# Track frame offsets:
#	150
#	12429
#	33816
#	50690
#	60689
#	76661
#	94296
#	115614
#	120562
#	139747
#	155868
#
# Disc length: 2371 seconds
#
# Revision: 1
# Processed by: cddbd v1.4PL0 Copyright (c) Steve Scherf et al.
# Submitted via: audiograbber 1.82.02
#
DISCID=8a09410b
DTITLE=Johnny Long - Long on Blues
DYEAR=1998
DGENRE=acoustic blues
TTITLE0=PTB and BW (instrumanetal)
TTITLE1=PTB and BW (vocal)
TTITLE2=Pressure Cooker (About to Blow)
TTITLE3=You Don't Know St Louis
TTITLE4=Whokumtown
TTITLE5=Sweatshop Blues
TTITLE6=Stranglevine
TTITLE7=LJ Stomp
TTITLE8=Red Hawk
TTITLE9=You Got the Healin' Touch
TTITLE10=Mean Ol' Rootin' Ground Sloth
EXTD=
EXTT0=
EXTT1=
EXTT2=
EXTT3=
EXTT4=
EXTT5=
EXTT6=
EXTT7=
EXTT8=
EXTT9=
EXTT10=
PLAYORDER=
